<svg width="37" height="37" viewBox="0 0 37 37" fill="none" xmlns="http://www.w3.org/2000/svg">
<g clip-path="url(#clip0)">
<path d="M16.7528 1.19282C16.7528 0.840174 16.5965 0.505602 16.3264 0.278957C16.0562 0.052312 15.699 -0.0441942 15.3518 0.0175497C12.4217 0.538608 9.7288 1.74437 7.44378 3.46341C7.16769 3.6711 6.99526 3.98848 6.97116 4.33322C6.94707 4.67796 7.07407 5.01592 7.31841 5.26026L13.4728 11.4147C13.8491 11.7909 14.4297 11.8727 14.8948 11.6142C15.2388 11.423 15.5989 11.2572 15.9725 11.1196C16.4414 10.947 16.7528 10.5002 16.7528 10.0005V1.19282Z" fill="#1B305C"/>
<path d="M20.5175 10.0015C20.5175 10.5013 20.8294 10.9479 21.2986 11.1205C23.418 11.9 25.1004 13.5825 25.8798 15.7018C26.0524 16.1709 26.4993 16.4826 26.9991 16.4826H35.8077C36.1607 16.4826 36.4954 16.3262 36.7219 16.0555C36.9484 15.7848 37.0432 15.4278 36.9813 15.0803C35.6193 7.42127 29.5788 1.38079 21.9198 0.0186579C21.5726 -0.043086 21.2159 0.0521652 20.9455 0.278559C20.675 0.504953 20.5175 0.83965 20.5175 1.19242V10.0015Z" fill="#366EEB"/>
<path d="M26.9989 20.2463C26.499 20.2463 26.0523 20.5582 25.8798 21.0274C24.7952 23.9772 21.9614 26.0815 18.6352 26.0815C14.3729 26.0815 10.9176 22.6262 10.9176 18.3639C10.9176 17.4123 11.0904 16.5013 11.4057 15.6597C11.5697 15.222 11.4625 14.7283 11.132 14.3977L4.81238 8.07816C4.55762 7.8234 4.20134 7.69766 3.84305 7.73568C3.48476 7.77371 3.16199 7.97136 2.96659 8.27406C1.0898 11.182 0 14.6455 0 18.3639C0 28.6558 8.34332 36.9991 18.6352 36.9991C27.8063 36.9991 35.4298 30.3741 36.9816 21.6488C37.0433 21.3015 36.948 20.9448 36.7217 20.6744C36.4953 20.404 36.1606 20.2465 35.8078 20.2465H26.9989V20.2463Z" fill="#7B9CE6"/>
</g>
<defs>
<clipPath id="clip0">
<rect width="37" height="37" fill="white"/>
</clipPath>
</defs>
</svg>
