<svg width="1332" height="855" viewBox="0 0 1332 855" fill="none" xmlns="http://www.w3.org/2000/svg">
<path d="M-38.1758 225.285C-11.037 77.6917 85.3058 159.044 301.059 52.0782C450.322 -54.3939 445.709 37.7518 698.642 43.2473C1014.81 50.1167 1004.04 -47.7978 1225.22 68C1446.4 183.798 1246.17 402.907 1282.8 562.865C1319.44 722.823 1122.69 718.407 1122.69 793.97C1122.69 869.533 634.187 878.365 419.113 793.97C204.038 709.575 75.1286 787.591 -148.766 689.458C-372.661 591.324 -72.0992 409.776 -38.1758 225.285Z" fill="#F6FCFF"/>
<path d="M-38.1758 225.285C-11.037 77.6917 85.3058 159.044 301.059 52.0782C450.322 -54.3939 445.709 37.7518 698.642 43.2473C1014.81 50.1167 1004.04 -47.7978 1225.22 68C1446.4 183.798 1246.17 402.907 1282.8 562.865C1319.44 722.823 1122.69 718.407 1122.69 793.97C1122.69 869.533 634.187 878.365 419.113 793.97C204.038 709.575 75.1286 787.591 -148.766 689.458C-372.661 591.324 -72.0992 409.776 -38.1758 225.285Z" stroke="#F6FCFF"/>
<path d="M-38.1758 225.285C-11.037 77.6917 85.3058 159.044 301.059 52.0782C450.322 -54.3939 445.709 37.7518 698.642 43.2473C1014.81 50.1167 1004.04 -47.7978 1225.22 68C1446.4 183.798 1246.17 402.907 1282.8 562.865C1319.44 722.823 1122.69 718.407 1122.69 793.97C1122.69 869.533 634.187 878.365 419.113 793.97C204.038 709.575 75.1286 787.591 -148.766 689.458C-372.661 591.324 -72.0992 409.776 -38.1758 225.285Z" stroke="url(#paint0_linear)"/>
<defs>
<linearGradient id="paint0_linear" x1="534.925" y1="1" x2="534.925" y2="854" gradientUnits="userSpaceOnUse">
<stop stop-color="white"/>
<stop offset="1" stop-color="white" stop-opacity="0"/>
</linearGradient>
</defs>
</svg>
