<svg width="50" height="50" viewBox="0 0 50 50" fill="none" xmlns="http://www.w3.org/2000/svg">
<g filter="url(#filter0_d)">
<rect x="4" width="42" height="42" rx="5" fill="white"/>
</g>
<path d="M27.2714 25.1545H23.7857L23.0571 14H28L27.2714 25.1545ZM23 29.0591C23 28.4197 23.2143 27.9364 23.6429 27.6091C24.0714 27.2818 24.6952 27.1182 25.5143 27.1182C26.3048 27.1182 26.9143 27.2857 27.3429 27.6206C27.781 27.9555 28 28.435 28 29.0591C28 29.6604 27.781 30.1361 27.3429 30.4862C26.9048 30.8287 26.2952 31 25.5143 31C24.7143 31 24.0952 30.8326 23.6571 30.4977C23.219 30.1551 23 29.6756 23 29.0591Z" fill="#418BF7"/>
<defs>
<filter id="filter0_d" x="0" y="0" width="50" height="50" filterUnits="userSpaceOnUse" color-interpolation-filters="sRGB">
<feFlood flood-opacity="0" result="BackgroundImageFix"/>
<feColorMatrix in="SourceAlpha" type="matrix" values="0 0 0 0 0 0 0 0 0 0 0 0 0 0 0 0 0 0 127 0"/>
<feOffset dy="4"/>
<feGaussianBlur stdDeviation="2"/>
<feColorMatrix type="matrix" values="0 0 0 0 0 0 0 0 0 0 0 0 0 0 0 0 0 0 0.11 0"/>
<feBlend mode="normal" in2="BackgroundImageFix" result="effect1_dropShadow"/>
<feBlend mode="normal" in="SourceGraphic" in2="effect1_dropShadow" result="shape"/>
</filter>
</defs>
</svg>
